<svg width="131" height="24" viewBox="0 0 131 24" fill="none" xmlns="http://www.w3.org/2000/svg">
<path d="M121.039 1.47203C121.039 1.47203 130.447 23.2 130.447 23.232C130.543 23.456 130.543 23.52 130.543 23.616C130.543 23.872 130.351 24 129.999 24H110.639C110.287 24 110.031 23.808 110.031 23.52C110.031 23.424 110.031 23.328 110.095 23.232L119.631 1.47203C119.791 1.15203 119.951 1.05603 120.303 1.05603H120.399C120.815 1.05603 120.879 1.15203 121.039 1.47203ZM120.335 6.04803L113.839 21.28H126.799L120.335 6.04803Z" fill="white"/>
<path d="M92.496 8.89601L95.568 1.47201C95.728 1.12001 95.856 1.08801 96.208 1.08801H97.232C97.584 1.08801 97.712 1.12001 97.84 1.47201L106.928 23.296C106.96 23.392 106.992 23.488 106.992 23.584C106.992 23.84 106.8 24 106.48 24H104.848C104.208 24 104.144 23.552 103.536 21.952L96.72 5.21601L89.904 21.952C89.264 23.552 89.232 24 88.592 24H86.96C86.608 24 86.416 23.84 86.416 23.584C86.416 23.488 86.448 23.392 86.48 23.296L91.12 12.192C90.16 9.85601 89.2 7.52001 88.304 5.18401L81.488 21.952C80.848 23.552 80.784 24 80.176 24H78.544C78.192 24 78 23.84 78 23.584C78 23.488 78 23.392 78.064 23.296L87.152 1.44001C87.28 1.15201 87.44 1.08801 87.76 1.08801H88.784C89.136 1.08801 89.264 1.08801 89.424 1.47201L92.496 8.89601Z" fill="white"/>
<path d="M72.0738 4.32003C70.6978 3.52003 69.1618 3.13603 67.6258 3.13603C62.6018 3.13603 58.2177 7.23203 58.2177 12.224C58.2177 17.152 62.2817 21.376 67.2097 21.376C69.0017 21.376 70.7298 20.672 72.3298 19.872V14.272C72.3298 13.824 72.6178 13.504 73.0658 13.504H74.1858C74.6338 13.504 74.9538 13.824 74.9538 14.272V20.96C74.9538 21.344 74.7938 21.472 74.4418 21.728C72.3298 23.2 69.9298 24 67.3378 24C63.0498 24 59.1138 21.6 57.0338 17.888C57.0338 17.92 57.3218 18.432 57.3218 18.4C56.2018 16.544 55.5938 14.4 55.5938 12.192C55.5938 5.79203 60.8738 0.384033 67.4018 0.384033C69.8658 0.384033 72.8418 1.21603 74.6978 3.07203C74.8578 3.23203 74.9218 3.42403 74.9218 3.64803C74.9218 4.35203 74.0578 5.12003 73.5778 5.12003C73.4178 5.12003 73.2578 5.05603 72.0738 4.32003Z" fill="white"/>
<path d="M43.0393 1.47203C43.0393 1.47203 52.4473 23.2 52.4473 23.232C52.5433 23.456 52.5433 23.52 52.5433 23.616C52.5433 23.872 52.3513 24 51.9993 24H32.6392C32.2872 24 32.0312 23.808 32.0312 23.52C32.0312 23.424 32.0313 23.328 32.0953 23.232L41.6313 1.47203C41.7913 1.15203 41.9513 1.05603 42.3033 1.05603H42.3993C42.8153 1.05603 42.8793 1.15203 43.0393 1.47203ZM42.3353 6.04803L35.8392 21.28H48.7993L42.3353 6.04803Z" fill="white"/>
<path d="M14.496 8.89601L17.568 1.47201C17.728 1.12001 17.856 1.08801 18.208 1.08801H19.232C19.584 1.08801 19.712 1.12001 19.84 1.47201L28.928 23.296C28.96 23.392 28.992 23.488 28.992 23.584C28.992 23.84 28.8 24 28.48 24H26.848C26.208 24 26.144 23.552 25.536 21.952L18.72 5.21601L11.904 21.952C11.264 23.552 11.232 24 10.592 24H8.96C8.608 24 8.416 23.84 8.416 23.584C8.416 23.488 8.448 23.392 8.48 23.296L13.12 12.192C12.16 9.85601 11.2 7.52001 10.304 5.18401L3.488 21.952C2.848 23.552 2.784 24 2.176 24H0.544C0.192 24 0 23.84 0 23.584C0 23.488 0 23.392 0.064 23.296L9.152 1.44001C9.28 1.15201 9.44 1.08801 9.76 1.08801H10.784C11.136 1.08801 11.264 1.08801 11.424 1.47201L14.496 8.89601Z" fill="white"/>
</svg>
