<svg width="24" height="24" viewBox="0 0 24 24" fill="none" xmlns="http://www.w3.org/2000/svg">
<rect width="24" height="24" rx="12" fill="#F72919"/>
<path d="M12.0022 10.0894L13.6111 6.20112C13.6949 6.01676 13.762 6 13.9463 6H14.4826C14.667 6 14.734 6.01676 14.8011 6.20112L19.5608 17.6313C19.5776 17.6816 19.5944 17.7318 19.5944 17.7821C19.5944 17.9162 19.4938 18 19.3262 18H18.4715C18.1363 18 18.1027 17.7654 17.7843 16.9274L14.2145 8.16201L10.6446 16.9274C10.3094 17.7654 10.2927 18 9.95749 18H9.10274C8.91838 18 8.81783 17.9162 8.81783 17.7821C8.81783 17.7318 8.83459 17.6816 8.85135 17.6313L11.2815 11.8156C10.7787 10.5922 10.2759 9.36871 9.80665 8.14525L6.23682 16.9274C5.90162 17.7654 5.8681 18 5.54967 18H4.69492C4.51056 18 4.41 17.9162 4.41 17.7821C4.41 17.7318 4.41 17.6816 4.44352 17.6313L9.2033 6.18436C9.27034 6.03352 9.35414 6 9.52174 6H10.058C10.2424 6 10.3094 6 10.3932 6.20112L12.0022 10.0894Z" fill="white"/>
</svg>
