<svg width="16" height="12" viewBox="0 0 16 12" fill="none" xmlns="http://www.w3.org/2000/svg">
<path d="M8.00218 4.08939L9.61112 0.201117C9.69492 0.0167596 9.76196 0 9.94632 0H10.4826C10.667 0 10.734 0.0167596 10.8011 0.201117L15.5608 11.6313C15.5776 11.6816 15.5944 11.7318 15.5944 11.7821C15.5944 11.9162 15.4938 12 15.3262 12H14.4715C14.1363 12 14.1027 11.7654 13.7843 10.9274L10.2145 2.16201L6.64464 10.9274C6.30945 11.7654 6.29269 12 5.95749 12H5.10274C4.91838 12 4.81783 11.9162 4.81783 11.7821C4.81783 11.7318 4.83459 11.6816 4.85135 11.6313L7.28151 5.81564C6.77872 4.59218 6.27593 3.36871 5.80665 2.14525L2.23682 10.9274C1.90162 11.7654 1.8681 12 1.54967 12H0.69492C0.510562 12 0.410004 11.9162 0.410004 11.7821C0.410004 11.7318 0.410004 11.6816 0.443523 11.6313L5.2033 0.184357C5.27034 0.0335191 5.35414 0 5.52174 0H6.05805C6.24241 0 6.30945 0 6.39324 0.201117L8.00218 4.08939Z" fill="white"/>
</svg>
